version 1
nodes
0 "ValveBiped.Bip01_Pelvis" -1
1 "ValveBiped.Bip01_Spine" 0
2 "ValveBiped.Bip01_Spine1" 1
3 "ValveBiped.Bip01_Spine2" 2
4 "ValveBiped.Bip01_Spine4" 3
5 "ValveBiped.Bip01_Neck1" 4
6 "ValveBiped.Bip01_Head1" 5
7 "ValveBiped.forward" 6
8 "ORG-eye.L" 6
9 "+EyeBone L A01" 8
10 "+EyeBoneA02.L" 9
11 "ORG-eye.R" 6
12 "+EyeBone R A01" 11
13 "+EyeBoneA02.R" 12
14 "eye.L" 6
15 "eye.R" 6
16 "+HairSB01.L" 6
17 "+HairSB02.L" 16
18 "+HairSB03.L" 17
19 "+HairSB04.L" 18
20 "+HairSE01.L" 6
21 "+HairSD01.L" 6
22 "+HairSD02.L" 21
23 "+HairBA01.L" 6
24 "+HairBA02.L" 23
25 "+HairB CB A01" 6
26 "+HairB CB A02" 25
27 "+HairSB01.R" 6
28 "+HairSB02.R" 27
29 "+HairSB03.R" 28
30 "+HairSB04.R" 29
31 "+HairBA01.R" 6
32 "+HairBA02.R" 31
33 "+HairSD01.R" 6
34 "+HairSD02.R" 33
35 "+HairSC01.L" 6
36 "+HairSC01.R" 6
37 "+ToothBone D A01" 6
38 "+ToothBone U A01" 6
39 "ValveBiped.Bip01_L_Clavicle" 4
40 "ValveBiped.Bip01_L_UpperArm" 39
41 "ValveBiped.Bip01_L_Forearm" 40
42 "ValveBiped.Bip01_L_Hand" 41
43 "ValveBiped.Anim_Attachment_LH" 42
44 "ValveBiped.Bip01_L_Finger4" 42
45 "ValveBiped.Bip01_L_Finger41" 44
46 "ValveBiped.Bip01_L_Finger42" 45
47 "ValveBiped.Bip01_L_Finger3" 42
48 "ValveBiped.Bip01_L_Finger31" 47
49 "ValveBiped.Bip01_L_Finger32" 48
50 "ValveBiped.Bip01_L_Finger2" 42
51 "ValveBiped.Bip01_L_Finger21" 50
52 "ValveBiped.Bip01_L_Finger22" 51
53 "ValveBiped.Bip01_L_Finger1" 42
54 "ValveBiped.Bip01_L_Finger11" 53
55 "ValveBiped.Bip01_L_Finger12" 54
56 "ValveBiped.Bip01_L_Finger0" 42
57 "ValveBiped.Bip01_L_Finger01" 56
58 "ValveBiped.Bip01_L_Finger02" 57
59 "ValveBiped.Bip01_L_Finger02R" 58
60 "ValveBiped.Bip01_L_Finger01R" 57
61 "ValveBiped.Bip01_L_Finger0R" 56
62 "ValveBiped.Bip01_L_Wrist" 41
63 "ValveBiped.Bip01_R_Clavicle" 4
64 "ValveBiped.Bip01_R_UpperArm" 63
65 "ValveBiped.Bip01_R_Forearm" 64
66 "ValveBiped.Bip01_R_Hand" 65
67 "ValveBiped.Anim_Attachment_RH" 66
68 "ValveBiped.Bip01_R_Finger4" 66
69 "ValveBiped.Bip01_R_Finger41" 68
70 "ValveBiped.Bip01_R_Finger42" 69
71 "ValveBiped.Bip01_R_Finger3" 66
72 "ValveBiped.Bip01_R_Finger31" 71
73 "ValveBiped.Bip01_R_Finger32" 72
74 "ValveBiped.Bip01_R_Finger2" 66
75 "ValveBiped.Bip01_R_Finger21" 74
76 "ValveBiped.Bip01_R_Finger22" 75
77 "ValveBiped.Bip01_R_Finger1" 66
78 "ValveBiped.Bip01_R_Finger11" 77
79 "ValveBiped.Bip01_R_Finger12" 78
80 "ValveBiped.Bip01_R_Finger0" 66
81 "ValveBiped.Bip01_R_Finger01" 80
82 "ValveBiped.Bip01_R_Finger02" 81
83 "ValveBiped.Bip01_R_Finger02R" 82
84 "ValveBiped.Bip01_R_Finger01R" 81
85 "ValveBiped.Bip01_R_Finger0R" 80
86 "ValveBiped.Bip01_R_Wrist" 65
87 "+ArmScalfR" 64
88 "breast.R" 4
89 "breast.L" 4
90 "+Chestbag.003" 4
91 "+ChestbagFA" 4
92 "+ChestbagFB" 91
93 "+ChestbagRA" 91
94 "+ChestbagLA" 91
95 "+TabletFB" 91
96 "ValveBiped.Jacket1_bone" 3
97 "ValveBiped.Jacket0_bone" 96
98 "+ChestbagRB" 2
99 "+HipsBackLA" 1
100 "+HipsBackLB" 1
101 "+HipsBackLC" 1
102 "ValveBiped.Bip01_L_Thigh" 0
103 "ValveBiped.Bip01_L_Calf" 102
104 "ValveBiped.Bip01_L_Foot" 103
105 "ValveBiped.Bip01_L_Toe0" 104
106 "+LegBagLA" 102
107 "+LegBagLB" 102
108 "ValveBiped.Bip01_R_Thigh" 0
109 "ValveBiped.Bip01_R_Calf" 108
110 "ValveBiped.Bip01_R_Foot" 109
111 "ValveBiped.Bip01_R_Toe0" 110
112 "+LegBackRA" 108
113 "+PelvisTwist CF A01" 0
114 "plate-border" -1
115 "Plate" 114
116 "Mouth-Control" 115
117 "Mouth-Smile1-Control" 115
118 "Mouth-Smile2-Control" 115
119 "Mouth-Angry1-Control" 115
120 "Mouth-Angry2-Control" 115
121 "Mouth-Angry3-Control" 115
122 "Mouth-Fury1-Control" 115
123 "Mouth-Doya1-Control" 115
124 "Mouth-Doya2-Control" 115
125 "Mouth-Pero1-Control" 115
126 "Mouth-Pero2-Control" 115
127 "Mouth-Neko1-Control" 115
128 "Mouth-Default-Control" 115
129 "Eye-Down-Control" 115
130 "Eye-Up-Control" 115
131 "Eye-Jito-Control" 115
132 "Eye-Tired-Control" 115
133 "Eye-Hostility-Control" 115
134 "Eye-Wail-Control" 115
135 "Eye-LowerEyelid-Control" 115
136 "Eye-Ha-Control" 115
137 "Eye-WinkA-Control" 115
138 "Eye-WinkB-Control" 115
139 "Eye-WinkC-Control" 115
140 "Eye-Star-Control" 115
141 "Eye-Pupil-Control" 115
142 "Wink-Control-R" 115
143 "Wink-Control-L" 115
144 "Brow-Trouble-R-Control" 115
145 "Brow-Trouble-L-Control" 115
146 "Brow-Shy-R-Control" 115
147 "Brow-Shy-L-Control" 115
148 "Brow-Angry-R-Control" 115
149 "Brow-Angry-L-Control" 115
150 "Brow-Smily-R-Control" 115
151 "Brow-Smily-L-Control" 115
152 "Brow-R-Control" 115
153 "Brow-L-Control" 115
154 "WinkA-R-Invis" 115
155 "WinkB-R-Invis" 115
156 "WinkC-R-Invis" 115
157 "WinkA-L-Invis" 115
158 "WinkB-L-Invis" 115
159 "WinkC-L-Invis" 115
160 "eyelid-invis-control" 115
161 "plate-settings" -1
162 "+EyeBone R A01.001" -1
163 "+EyeBone L A01.001" -1
164 "eyetrack" -1
165 "eyetrack_R" 164
166 "eyetrack_L" 164
end
skeleton
time 0
0  0.000000 -0.793021 39.058537  1.570796 -0.000000 0.000000
1  0.000000 3.814846 0.725936  1.570796 -0.027885 1.570796
2  2.316108 0.222517 -0.000000  0.000000 -0.000000 -0.112578
3  2.890794 -0.120074 -0.000001  0.000000 -0.000000 -0.012640
4  0.000002 0.000000 0.000000  0.000000 0.000000 0.155823
5  7.176483 -2.722131 -0.000002  3.141590 -0.000000 0.224118
6  3.274211 0.460034 0.000002  -0.000000 -0.000000 0.109739
7  0.000001 -0.000000 0.000000  -1.570795 0.000001 -1.326366
8  2.652465 -1.659424 -1.420975  -0.286103 0.307245 -3.053862
9  -0.000003 0.000001 0.000001  0.000000 -0.000006 0.000000
10  0.000001 1.437834 -0.000001  0.000001 -1.863948 -0.000001
11  2.652457 -1.659390 1.420837  2.855307 0.308304 0.087533
12  -0.000001 -0.000000 0.000002  -0.000000 -0.000003 0.000000
13  -0.000004 1.438049 -0.000001  -0.000001 1.863954 -0.000001
14  2.652465 -1.659424 -1.420975  -0.286103 0.307245 -3.053862
15  2.652457 -1.659390 1.420837  2.855307 0.308304 0.087533
16  3.787115 -0.867085 -3.640509  2.296075 1.570875 -0.626115
17  -0.000000 -0.000008 2.428552  0.001860 -0.036184 -0.038151
18  -0.000032 -0.000011 2.673085  0.001407 -0.019305 -0.020373
19  -0.000068 -0.000005 3.002431  -0.000001 0.000001 0.000000
20  1.660134 0.823830 -3.561774  0.543632 2.774416 1.200034
21  4.463524 2.152793 -4.518403  -0.779588 1.368076 2.523310
22  0.000050 -0.000007 3.446186  -0.000000 0.000015 0.000000
23  4.681763 4.844151 -2.892653  2.311742 1.647978 -0.569142
24  -0.000180 -0.000011 3.565027  -0.000000 0.000028 -0.000000
25  4.412220 5.601223 -0.000068  2.312823 1.602963 -0.569957
26  -0.000046 -0.000007 3.550445  -0.000001 0.000011 0.000000
27  3.787112 -0.867106 3.640507  2.364830 1.570721 -0.544771
28  0.000000 -0.000008 2.428555  0.001860 0.036184 0.038151
29  0.000032 -0.000011 2.673078  0.001407 0.019305 0.020373
30  0.000068 -0.000006 3.002428  -0.000001 -0.000001 -0.000000
31  4.681760 4.844134 2.892685  2.311811 1.493619 -0.569064
32  0.000180 -0.000010 3.565033  0.000000 -0.000028 0.000000
33  4.463520 2.152767 4.518419  2.362031 1.368071 -0.618222
34  -0.000050 -0.000008 3.446204  -0.000000 -0.000015 -0.000000
35  4.038934 0.624762 -4.357179  0.606149 2.662603 1.137516
36  4.038931 0.624737 4.357186  0.606151 0.478985 1.137517
37  0.644737 -3.762316 -0.000054  2.971874 1.570794 0.000000
38  0.903099 -3.718083 -0.000054  2.903314 1.570794 0.000000
39  6.118126 -2.713616 0.729485  -1.503261 -1.807446 -0.241396
40  3.814778 0.570561 -0.285524  -1.453549 0.015822 0.236131
41  9.183545 0.000001 -0.000000  0.000000 0.000000 0.000000
42  7.830133 0.000001 -0.000003  1.570796 0.000000 0.000000
43  2.675907 -1.712729 0.000287  1.570750 -0.000003 1.569515
44  2.656868 -0.091529 -1.201497  0.000000 0.000000 -0.000000
45  0.957426 0.000001 0.000000  -0.000000 -0.000000 0.000000
46  0.645419 -0.000000 0.000000  0.000000 0.000000 0.000000
47  2.944330 0.095914 -0.665572  0.000000 0.000000 -0.000000
48  1.205040 0.000001 -0.000000  -0.000000 -0.000000 0.000000
49  0.936343 -0.000000 -0.000000  0.000000 0.000000 0.000000
50  3.029882 0.208043 0.055970  0.000000 0.000000 -0.000000
51  1.233898 0.000001 0.000000  -0.000000 -0.000000 0.000000
52  1.030818 -0.000000 0.000000  0.000000 0.000000 0.000000
53  3.049526 0.170800 0.836550  0.000000 0.000000 -0.000000
54  1.080988 0.000001 0.000000  -0.000000 -0.000000 0.000000
55  0.860413 -0.000000 0.000000  -0.000000 0.000000 0.000000
56  1.121692 -0.383288 0.974553  -1.288895 -0.530151 -0.654546
57  1.039402 -0.317167 0.187497  -0.000052 0.002005 -0.043598
58  0.820004 -0.268149 0.174432  -0.000039 0.013099 -0.286905
59  -0.000009 -0.000005 0.000009  0.267547 -0.646657 -1.763714
60  -0.000008 -0.000002 0.000012  0.253169 -0.658037 -2.043768
61  -0.000009 -0.000002 0.000019  0.228805 -0.723345 -2.019906
62  3.915103 0.000003 -0.000018  1.570797 1.570787 0.000000
63  6.118126 -2.713614 -0.729489  1.431497 1.807447 -0.241414
64  3.814777 0.548630 0.325705  1.523338 -0.032558 0.234441
65  9.183540 -0.000000 0.000004  -0.000000 0.000000 -0.000000
66  7.830133 -0.000002 0.000005  -1.570796 -0.000000 0.000000
67  2.676230 -1.712212 0.000225  -1.570788 0.000054 -1.569767
68  2.656828 -0.091500 1.201455  -0.000000 0.000000 -0.000000
69  0.957447 -0.000001 0.000000  0.000000 0.000000 0.000000
70  0.645396 -0.000001 0.000000  -0.000000 0.000000 -0.000000
71  2.944285 0.095943 0.665530  -0.000000 0.000000 -0.000000
72  1.205066 -0.000001 0.000000  -0.000000 0.000000 0.000000
73  0.936316 -0.000002 0.000000  -0.000000 0.000000 -0.000000
74  3.029839 0.208072 -0.056013  -0.000000 0.000000 -0.000000
75  1.233927 -0.000001 0.000000  0.000000 0.000000 0.000000
76  1.030821 -0.000002 0.000000  0.000000 0.000000 -0.000000
77  3.049486 0.170818 -0.836593  -0.000000 0.000000 -0.000000
78  1.080982 -0.000001 0.000001  0.000000 0.000000 0.000000
79  0.860415 -0.000002 0.000000  -0.000000 0.000000 -0.000000
80  1.121657 -0.383264 -0.974596  1.289015 0.530125 -0.654317
81  1.039406 -0.317254 -0.187300  0.000015 -0.002031 -0.043474
82  0.819979 -0.268306 -0.174308  0.000044 -0.013105 -0.286813
83  -0.000006 -0.000003 -0.000015  0.267394 -2.494834 -1.763912
84  -0.000007 -0.000000 -0.000009  -2.888575 -0.658145 1.097716
85  -0.000012 -0.000003 -0.000015  0.228581 -2.418174 -2.019839
86  3.915086 -0.000045 0.000001  0.000017 1.745174 -1.570780
87  3.230117 0.768710 -2.524121  -2.499932 -0.603813 0.810745
88  2.398526 0.951881 -2.142926  2.539943 -0.684174 1.204524
89  2.398527 0.951879 2.142926  -0.601651 -0.684173 -1.937068
90  1.035939 -4.422436 -0.000002  -0.000000 -2.508457 1.320404
91  1.924479 1.978085 0.000000  -0.000000 -2.508466 1.504548
92  -1.839589 5.141037 -1.350103  0.134024 0.012321 -0.183091
93  -3.100814 0.560355 2.991918  0.016390 0.101784 0.004128
94  2.000938 0.689596 -2.779057  -0.107852 0.097386 -0.025640
95  -1.849386 -1.569393 -1.425593  0.306861 1.245655 -2.717400
96  0.280442 2.817077 5.211884  1.570798 0.640459 1.668132
97  0.000008 -0.000005 -4.507171  0.000000 0.000000 0.004209
98  3.228371 -0.079557 -4.392854  0.010738 -2.407290 1.589272
99  -0.549547 -0.041034 5.953967  -0.154285 -2.502032 1.594443
100  -0.541930 -1.686887 6.046609  -0.153387 -2.509880 1.657085
101  0.272028 -3.331350 4.640182  -0.076665 -2.508571 1.782286
102  3.293467 0.000000 0.000000  -1.570796 -0.000000 -1.570796
103  17.114782 -0.000003 0.000001  0.000000 -0.000000 -0.000000
104  17.907839 -0.000002 0.000000  0.043955 -0.022259 -1.073018
105  4.224803 1.131797 0.018362  -0.011136 0.000946 -0.500518
106  6.401489 -1.483540 3.539749  0.076728 -2.447568 -1.663949
107  6.470481 0.309108 3.621713  0.076728 -2.447568 -1.663949
108  -3.293467 0.000000 0.000000  -1.570796 -0.000000 -1.570796
109  17.114786 -0.000003 0.000001  0.000000 -0.000000 -0.000000
110  17.907839 -0.000002 0.000001  -0.034455 0.019711 -1.075410
111  4.221901 1.142039 -0.039575  -0.078654 -0.006189 -0.498949
112  0.036244 -0.191575 -3.924014  0.102057 -2.553450 -1.621451
113  0.041725 0.019779 0.013201  0.588509 -1.052789 -1.653519
114  14.283292 0.000000 54.157124  1.570796 -0.000000 0.000000
115  0.000000 0.000004 0.000000  -0.000000 -0.000000 0.000000
116  0.000000 -3.029785 0.000000  0.000000 -0.000000 0.000000
117  4.544684 0.216415 0.000000  -0.000000 -0.000000 0.000000
118  8.440127 0.216415 0.000000  -0.000000 -0.000000 0.000000
119  4.544684 -1.082062 0.000000  -0.000000 -0.000000 0.000000
120  8.440127 -1.082062 0.000000  -0.000000 -0.000000 0.000000
121  4.544684 -2.380539 0.000000  -0.000000 -0.000000 0.000000
122  8.440127 -2.380539 0.000000  -0.000000 -0.000000 0.000000
123  4.544684 -3.679024 0.000000  -0.000000 -0.000000 0.000000
124  8.440127 -3.679024 0.000000  -0.000000 -0.000000 0.000000
125  4.544684 -4.977501 0.000000  -0.000000 -0.000000 0.000000
126  8.440127 -4.977501 0.000000  -0.000000 -0.000000 0.000000
127  4.544684 -6.275982 0.000000  -0.000000 -0.000000 0.000000
128  8.440127 -6.275982 0.000000  -0.000000 -0.000000 0.000000
129  -3.246203 6.925220 -0.000000  -0.000000 -0.000000 0.000000
130  -3.246203 10.171421 -0.000000  -0.000000 -0.000000 0.000000
131  -1.947721 6.925220 -0.000000  -0.000000 -0.000000 0.000000
132  -1.947721 10.171421 -0.000000  -0.000000 -0.000000 0.000000
133  -0.649240 6.925220 -0.000000  -0.000000 -0.000000 0.000000
134  -0.649240 10.171421 -0.000000  -0.000000 -0.000000 0.000000
135  0.649240 6.925220 -0.000000  -0.000000 -0.000000 0.000000
136  0.649240 10.171421 -0.000000  -0.000000 -0.000000 0.000000
137  3.679029 11.469898 -0.000000  -0.000000 -0.000000 0.000000
138  3.679029 10.171421 -0.000000  -0.000000 -0.000000 0.000000
139  3.679029 8.872944 0.000000  -0.000000 -0.000000 0.000000
140  3.679029 6.925220 -0.000000  -0.000000 -0.000000 0.000000
141  4.977511 6.925220 -0.000000  -0.000000 -0.000000 0.000000
142  2.380548 10.863941 -0.000000  -0.000000 -0.000000 0.000000
143  6.275992 10.863941 -0.000000  -0.000000 -0.000000 0.000000
144  -3.246203 22.290554 -0.000000  0.000000 -0.000000 0.000000
145  0.649240 22.290554 -0.000000  0.000000 -0.000000 0.000000
146  -3.246203 20.992077 -0.000000  0.000000 -0.000000 0.000000
147  0.649240 20.992077 -0.000000  0.000000 -0.000000 0.000000
148  -3.246203 19.693600 -0.000000  0.000000 -0.000000 0.000000
149  0.649240 19.693600 -0.000000  0.000000 -0.000000 0.000000
150  -3.246203 18.395115 -0.000000  -0.000000 -0.000000 0.000000
151  0.649240 18.395115 -0.000000  -0.000000 -0.000000 0.000000
152  -2.164135 16.014576 -0.000000  -0.000000 -0.000000 0.000000
153  1.731307 16.014576 -0.000000  -0.000000 -0.000000 0.000000
154  11.469916 10.863941 -0.000000  -0.000000 -0.000000 0.000000
155  11.902741 10.863941 -0.000000  -0.000000 -0.000000 0.000000
156  12.335568 10.863941 -0.000000  -0.000000 -0.000000 0.000000
157  13.201224 10.863941 -0.000000  -0.000000 -0.000000 0.000000
158  13.634051 10.863941 -0.000000  -0.000000 -0.000000 0.000000
159  14.066878 10.863941 -0.000000  -0.000000 -0.000000 0.000000
160  11.469916 3.073067 -0.000000  0.000000 -0.000000 0.000000
161  0.000000 0.000000 79.071037  1.570796 -0.000000 0.000000
162  -1.420841 -2.579385 59.757206  0.000000 1.424526 3.141593
163  1.420971 -2.579428 59.757206  0.000000 1.424525 3.141593
164  0.000065 -12.984776 59.757206  1.570796 -0.000000 0.000000
165  -1.420906 0.000000 0.000000  0.000000 -0.000000 0.000000
166  1.420906 0.000000 0.000000  0.000000 -0.000000 0.000000
end
