version 1
nodes
  0 "ValveBiped.Bip01_Pelvis"  -1
  1 "ValveBiped.Bip01_Spine"   0
  2 "ValveBiped.Bip01_Spine1"   1
  3 "ValveBiped.Bip01_Spine2"   2
  4 "ValveBiped.Bip01_Spine4"   3
  5 "ValveBiped.Bip01_Neck1"   4
  6 "ValveBiped.Bip01_Head1"   5
  7 "ValveBiped.forward"   6
  8 "ValveBiped.Bip01_L_Clavicle"   4
  9 "ValveBiped.Bip01_L_UpperArm"   8
 10 "ValveBiped.Bip01_L_Forearm"   9
 11 "ValveBiped.Bip01_L_Hand"  10
 12 "ValveBiped.Anim_Attachment_LH"  11
 13 "ValveBiped.Bip01_L_Finger4"  11
 14 "ValveBiped.Bip01_L_Finger41"  13
 15 "ValveBiped.Bip01_L_Finger42"  14
 16 "ValveBiped.Bip01_L_Finger3"  11
 17 "ValveBiped.Bip01_L_Finger31"  16
 18 "ValveBiped.Bip01_L_Finger32"  17
 19 "ValveBiped.Bip01_L_Finger2"  11
 20 "ValveBiped.Bip01_L_Finger21"  19
 21 "ValveBiped.Bip01_L_Finger22"  20
 22 "ValveBiped.Bip01_L_Finger1"  11
 23 "ValveBiped.Bip01_L_Finger11"  22
 24 "ValveBiped.Bip01_L_Finger12"  23
 25 "ValveBiped.Bip01_L_Finger0"  11
 26 "ValveBiped.Bip01_L_Finger01"  25
 27 "ValveBiped.Bip01_L_Finger02"  26
 28 "ValveBiped.Bip01_R_Clavicle"   4
 29 "ValveBiped.Bip01_R_UpperArm"  28
 30 "ValveBiped.Bip01_R_Forearm"  29
 31 "ValveBiped.Bip01_R_Hand"  30
 32 "ValveBiped.Anim_Attachment_RH"  31
 33 "ValveBiped.Bip01_R_Finger4"  31
 34 "ValveBiped.Bip01_R_Finger41"  33
 35 "ValveBiped.Bip01_R_Finger42"  34
 36 "ValveBiped.Bip01_R_Finger3"  31
 37 "ValveBiped.Bip01_R_Finger31"  36
 38 "ValveBiped.Bip01_R_Finger32"  37
 39 "ValveBiped.Bip01_R_Finger2"  31
 40 "ValveBiped.Bip01_R_Finger21"  39
 41 "ValveBiped.Bip01_R_Finger22"  40
 42 "ValveBiped.Bip01_R_Finger1"  31
 43 "ValveBiped.Bip01_R_Finger11"  42
 44 "ValveBiped.Bip01_R_Finger12"  43
 45 "ValveBiped.Bip01_R_Finger0"  31
 46 "ValveBiped.Bip01_R_Finger01"  45
 47 "ValveBiped.Bip01_R_Finger02"  46
 48 "ValveBiped.Bip01_L_Thigh"   0
 49 "ValveBiped.Bip01_L_Calf"  48
 50 "ValveBiped.Bip01_L_Foot"  49
 51 "ValveBiped.Bip01_L_Toe0"  50
 52 "ValveBiped.Bip01_R_Thigh"   0
 53 "ValveBiped.Bip01_R_Calf"  52
 54 "ValveBiped.Bip01_R_Foot"  53
 55 "ValveBiped.Bip01_R_Toe0"  54
end
skeleton
time 0
  0 -0.000005 -0.533203 38.562500 1.570792 0.000003 -0.000003
  1 0.000005 4.212784 -1.689857 1.570794 0.086297 1.570793
  2 3.837410 -0.000000 0.000000 0.000000 0.000000 -0.029241
  3 3.617859 0.000000 -0.000000 0.000001 0.000000 0.100334
  4 7.539783 0.000000 -0.000000 -0.000000 -0.000000 0.194095
  5 3.178303 0.000000 0.000000 3.138800 0.000567 0.400476
  6 2.970272 -0.000004 0.000000 -0.000000 0.000000 0.406586
  7 0.000000 0.000000 0.000000 -1.570796 0.000000 -1.326450
  8 2.023708 0.907459 0.852579 -1.544955 -1.855074 -0.198630
  9 4.983669 0.000004 0.000000 -1.481878 0.007249 0.283568
 10 11.123057 0.000000 0.000000 -0.002953 -0.000175 -0.040001
 11 11.208298 -0.000000 0.000000 1.572028 -0.032754 -0.015534
 12 2.676090 -1.712448 0.000000 -1.570796 -3.141592 -1.570796
 13 3.549244 0.198822 -1.489470 -0.368849 0.277315 -0.947515
 14 1.219004 0.000000 0.000000 -0.000000 0.009664 -0.439719
 15 0.679996 0.000004 0.000002 -0.000001 0.004969 -0.349578
 16 3.698009 0.267555 -0.728978 -0.159960 0.118759 -0.879900
 17 1.749006 0.000000 -0.000000 -0.000002 0.004459 -0.499702
 18 0.959999 0.000000 0.000000 -0.000002 0.007360 -0.639041
 19 3.768505 0.152546 0.071384 0.079201 0.039808 -0.804404
 20 2.037998 0.000000 0.000000 -0.000002 0.005515 -0.700666
 21 1.067001 0.000000 0.000000 -0.000001 0.003083 -0.429726
 22 3.783924 -0.017265 0.794555 0.086699 -0.016708 -0.846139
 23 1.629004 0.000004 0.000001 -0.000001 0.004072 -0.363008
 24 0.956001 -0.000004 0.000000 -0.000001 0.002594 -0.664309
 25 1.258965 -0.297985 1.252591 -1.107141 -0.578085 -0.952942
 26 1.393000 0.000002 -0.000004 0.000001 0.007386 0.414830
 27 1.099998 0.000000 0.000000 0.000002 0.011266 0.362860
 28 2.023720 0.907463 -0.852528 1.473132 1.855073 -0.198627
 29 4.983665 0.000000 0.000000 1.735799 -0.027347 0.282989
 30 11.123054 0.000000 0.000004 0.002953 0.000175 -0.040003
 31 11.208292 0.000000 0.000008 -1.563783 0.032746 -0.015534
 32 2.676085 -1.712444 -0.000000 -1.570796 -0.000000 -1.570796
 33 3.549273 0.211414 1.487669 0.267607 -0.294953 -0.860593
 34 1.219004 -0.000008 -0.000001 -0.000000 -0.011932 -0.439671
 35 0.680000 0.000000 0.000003 0.000001 -0.006132 -0.244270
 36 3.698027 0.273716 0.726623 0.022056 -0.160338 -0.686612
 37 1.749001 0.000008 0.000000 -0.000000 -0.005853 -0.563533
 38 0.959999 0.000000 0.000000 0.000001 -0.009662 -0.499308
 39 3.768499 0.151955 -0.072741 -0.093440 0.006945 -0.595504
 40 2.038004 0.000008 -0.000000 0.000001 -0.007972 -0.752564
 41 1.067001 0.000000 -0.000000 0.000001 -0.004461 -0.447950
 42 3.783903 -0.023952 -0.794451 -0.204701 0.128273 -0.574685
 43 1.629005 0.000000 0.000000 0.000001 -0.006612 -0.540414
 44 0.955997 0.000000 0.000000 0.000000 -0.004210 -0.783834
 45 1.258938 -0.308548 -1.250052 1.094515 0.457566 -0.826103
 46 1.393000 0.000002 -0.000004 -0.000001 -0.006301 0.291479
 47 1.099997 0.000000 -0.000008 -0.000002 -0.009616 0.362904
 48 3.984014 0.000004 -0.000003 -1.570793 0.051841 -1.565571
 49 15.940014 0.000000 0.000000 -0.000000 -0.000000 0.034199
 50 17.709564 0.000000 0.000000 -0.027914 -0.040780 -1.071635
 51 6.204000 -0.000000 -0.000000 -0.007299 -0.002950 -0.584373
 52 -3.984013 0.000008 0.000007 -1.570793 0.051847 -1.576017
 53 15.940014 0.000000 -0.000001 -0.000001 0.000000 0.034185
 54 17.709564 0.000000 0.000001 0.038611 0.040778 -1.071630
 55 6.204001 0.000000 0.000000 -0.081333 -0.002951 -0.584373
end
triangles
end
