version 1
nodes
0 "ValveBiped.Bip01_Pelvis" -1
1 "ValveBiped.Bip01_Spine" 0
2 "ValveBiped.Bip01_Spine1" 1
3 "ValveBiped.Bip01_Spine2" 2
4 "ValveBiped.Bip01_Spine4" 3
5 "ValveBiped.Bip01_Neck1" 4
6 "ValveBiped.Bip01_Head1" 5
7 "ValveBiped.forward" 6
8 "ValveBiped.Bip01_L_Clavicle" 4
9 "ValveBiped.Bip01_L_UpperArm" 8
10 "ValveBiped.Bip01_L_Forearm" 9
11 "ValveBiped.Bip01_L_Hand" 10
12 "ValveBiped.Anim_Attachment_LH" 11
13 "ValveBiped.Bip01_L_Finger4" 11
14 "ValveBiped.Bip01_L_Finger41" 13
15 "ValveBiped.Bip01_L_Finger42" 14
16 "ValveBiped.Bip01_L_Finger3" 11
17 "ValveBiped.Bip01_L_Finger31" 16
18 "ValveBiped.Bip01_L_Finger32" 17
19 "ValveBiped.Bip01_L_Finger2" 11
20 "ValveBiped.Bip01_L_Finger21" 19
21 "ValveBiped.Bip01_L_Finger22" 20
22 "ValveBiped.Bip01_L_Finger1" 11
23 "ValveBiped.Bip01_L_Finger11" 22
24 "ValveBiped.Bip01_L_Finger12" 23
25 "ValveBiped.Bip01_L_Finger0" 11
26 "ValveBiped.Bip01_L_Finger01" 25
27 "ValveBiped.Bip01_L_Finger02" 26
28 "ValveBiped.Bip01_R_Clavicle" 4
29 "ValveBiped.Bip01_R_UpperArm" 28
30 "ValveBiped.Bip01_R_Forearm" 29
31 "ValveBiped.Bip01_R_Hand" 30
32 "ValveBiped.Anim_Attachment_RH" 31
33 "ValveBiped.Bip01_R_Finger4" 31
34 "ValveBiped.Bip01_R_Finger41" 33
35 "ValveBiped.Bip01_R_Finger42" 34
36 "ValveBiped.Bip01_R_Finger3" 31
37 "ValveBiped.Bip01_R_Finger31" 36
38 "ValveBiped.Bip01_R_Finger32" 37
39 "ValveBiped.Bip01_R_Finger2" 31
40 "ValveBiped.Bip01_R_Finger21" 39
41 "ValveBiped.Bip01_R_Finger22" 40
42 "ValveBiped.Bip01_R_Finger1" 31
43 "ValveBiped.Bip01_R_Finger11" 42
44 "ValveBiped.Bip01_R_Finger12" 43
45 "ValveBiped.Bip01_R_Finger0" 31
46 "ValveBiped.Bip01_R_Finger01" 45
47 "ValveBiped.Bip01_R_Finger02" 46
48 "ValveBiped.Jacket1_bone" 3
49 "ValveBiped.Jacket0_bone" 48
50 "ValveBiped.Bip01_L_Thigh" 0
51 "ValveBiped.Bip01_L_Calf" 50
52 "ValveBiped.Bip01_L_Foot" 51
53 "ValveBiped.Bip01_L_Toe0" 52
54 "ValveBiped.Bip01_R_Thigh" 0
55 "ValveBiped.Bip01_R_Calf" 54
56 "ValveBiped.Bip01_R_Foot" 55
57 "ValveBiped.Bip01_R_Toe0" 56
end
skeleton
time 0
0  -0.000005 -0.788460 37.913784  1.570796 -0.000000 0.000000
1  0.000005 4.212784 -1.689858  1.570796 -0.027885 1.570796
2  3.837404 0.000352 0.000000  0.000000 -0.000000 -0.112577
3  3.617863 0.000200 0.000000  0.000000 -0.000000 -0.012641
4  7.539780 0.000456 -0.000002  0.000000 0.000000 0.155823
5  3.178297 0.000160 0.000000  3.141590 -0.000000 0.224119
6  2.970269 -0.000178 0.000000  -0.000000 -0.000000 0.109738
7  0.000001 0.000000 0.000000  -1.570795 0.000001 -1.326367
8  2.023661 0.907562 0.852579  -1.503261 -1.807447 -0.241396
9  4.983665 -0.000049 0.000040  -1.453549 0.015822 0.236131
10  11.123053 -0.000503 -0.000037  -0.000000 0.000000 0.000000
11  11.208296 0.000059 -0.000013  1.570796 -0.000000 0.000000
12  2.675901 -1.712736 0.000287  1.570750 -0.000003 1.569515
13  3.549417 0.198416 -1.489109  0.000000 0.000000 0.000000
14  1.219000 0.000004 -0.000003  -0.000000 0.000000 0.000000
15  0.679997 0.000072 -0.000049  -0.000000 0.000000 -0.000000
16  3.698109 0.267142 -0.728603  0.000000 -0.000000 0.000000
17  1.749004 -0.000047 0.000038  0.000000 0.000000 0.000000
18  0.959999 -0.000000 -0.000004  -0.000000 0.000000 -0.000000
19  3.768511 0.152136 0.071766  0.000000 0.000000 0.000000
20  2.038000 0.000156 -0.000161  -0.000000 0.000000 -0.000000
21  1.067001 -0.000011 0.000009  -0.000000 0.000000 -0.000000
22  3.783840 -0.017667 0.794939  0.000000 0.000000 0.000000
23  1.629002 -0.000118 0.000145  -0.000000 0.000000 -0.000000
24  0.955997 0.000084 -0.000120  -0.000000 0.000000 -0.000000
25  1.258804 -0.298112 1.252720  -1.288895 -0.530151 -0.654546
26  1.392999 -0.000104 0.000032  -0.000052 0.002005 -0.043598
27  1.099998 -0.000075 0.000003  -0.000038 0.013099 -0.286905
28  2.023664 0.907564 -0.852528  1.431496 1.807447 -0.241415
29  4.983663 -0.000034 -0.000030  1.523338 -0.032558 0.234441
30  11.123049 -0.000632 0.000039  -0.000000 -0.000000 -0.000000
31  11.208287 0.000276 0.000017  -1.570797 0.000000 0.000000
32  2.676229 -1.712217 0.000225  -1.570788 0.000054 -1.569767
33  3.549135 0.211721 1.487945  -0.000000 0.000000 -0.000000
34  1.219003 0.000042 0.000031  0.000000 0.000000 0.000000
35  0.679994 -0.000011 -0.000007  0.000000 0.000000 0.000000
36  3.697942 0.274030 0.726910  -0.000000 0.000000 -0.000000
37  1.748998 0.000173 0.000151  0.000000 0.000000 0.000000
38  0.959997 0.000001 -0.000000  0.000000 0.000000 0.000000
39  3.768491 0.152265 -0.072446  -0.000000 0.000000 -0.000000
40  2.037996 -0.000113 -0.000114  0.000000 0.000000 0.000000
41  1.066999 0.000085 0.000084  0.000000 0.000000 0.000000
42  3.783963 -0.023642 -0.794154  -0.000000 0.000000 -0.000000
43  1.629004 -0.000110 -0.000134  0.000000 0.000000 0.000000
44  0.955999 0.000089 0.000124  0.000000 0.000000 0.000000
45  1.259061 -0.308454 -1.249950  1.289015 0.530125 -0.654317
46  1.392996 0.000067 -0.000008  0.000015 -0.002031 -0.043474
47  1.099997 -0.000069 -0.000020  0.000045 -0.013105 -0.286813
48  0.280439 2.817077 5.211884  1.570798 0.640459 1.668132
49  0.000008 -0.000004 -4.507179  -0.000000 0.000000 0.004209
50  3.984014 -0.000004 -0.000003  -1.570796 -0.000000 -1.570796
51  15.940014 -0.001252 0.000005  0.000000 -0.000000 -0.000000
52  17.709564 -0.000538 0.000007  0.043955 -0.022259 -1.073018
53  6.203999 -0.000031 -0.000026  -0.011136 0.000946 -0.500518
54  -3.984013 0.000008 0.000007  -1.570796 -0.000000 -1.570796
55  15.940018 -0.001250 -0.000003  0.000000 -0.000000 -0.000000
56  17.709564 -0.000543 -0.000004  -0.034455 0.019712 -1.075411
57  6.204004 -0.000008 0.000003  -0.078653 -0.006189 -0.498949
end
