version 1
nodes
0 "ValveBiped.Bip01_Pelvis" -1
1 "ValveBiped.Bip01_Spine" 0
2 "ValveBiped.Bip01_Spine1" 1
3 "ValveBiped.Bip01_Spine2" 2
4 "ValveBiped.Bip01_Spine4" 3
5 "ValveBiped.Bip01_Neck1" 4
6 "ValveBiped.Bip01_Head1" 5
7 "ValveBiped.forward" 6
8 "ValveBiped.Bip01_R_Clavicle" 4
9 "ValveBiped.Bip01_R_UpperArm" 8
10 "ValveBiped.Bip01_R_Forearm" 9
11 "ValveBiped.Bip01_R_Hand" 10
12 "ValveBiped.Anim_Attachment_RH" 11
13 "ValveBiped.Bip01_R_Finger4" 11
14 "ValveBiped.Bip01_R_Finger41" 13
15 "ValveBiped.Bip01_R_Finger42" 14
16 "ValveBiped.Bip01_R_Finger3" 11
17 "ValveBiped.Bip01_R_Finger31" 16
18 "ValveBiped.Bip01_R_Finger32" 17
19 "ValveBiped.Bip01_R_Finger2" 11
20 "ValveBiped.Bip01_R_Finger21" 19
21 "ValveBiped.Bip01_R_Finger22" 20
22 "ValveBiped.Bip01_R_Finger1" 11
23 "ValveBiped.Bip01_R_Finger11" 22
24 "ValveBiped.Bip01_R_Finger12" 23
25 "ValveBiped.Bip01_R_Finger0" 11
26 "ValveBiped.Bip01_R_Finger01" 25
27 "ValveBiped.Bip01_R_Finger02" 26
28 "ValveBiped.Bip01_L_Clavicle" 4
29 "ValveBiped.Bip01_L_UpperArm" 28
30 "ValveBiped.Bip01_L_Forearm" 29
31 "ValveBiped.Bip01_L_Hand" 30
32 "ValveBiped.Anim_Attachment_LH" 31
33 "ValveBiped.Bip01_L_Finger4" 31
34 "ValveBiped.Bip01_L_Finger41" 33
35 "ValveBiped.Bip01_L_Finger42" 34
36 "ValveBiped.Bip01_L_Finger3" 31
37 "ValveBiped.Bip01_L_Finger31" 36
38 "ValveBiped.Bip01_L_Finger32" 37
39 "ValveBiped.Bip01_L_Finger2" 31
40 "ValveBiped.Bip01_L_Finger21" 39
41 "ValveBiped.Bip01_L_Finger22" 40
42 "ValveBiped.Bip01_L_Finger1" 31
43 "ValveBiped.Bip01_L_Finger11" 42
44 "ValveBiped.Bip01_L_Finger12" 43
45 "ValveBiped.Bip01_L_Finger0" 31
46 "ValveBiped.Bip01_L_Finger01" 45
47 "ValveBiped.Bip01_L_Finger02" 46
48 "ValveBiped.Bip01_R_Thigh" 0
49 "ValveBiped.Bip01_R_Calf" 48
50 "ValveBiped.Bip01_R_Foot" 49
51 "ValveBiped.Bip01_R_Toe0" 50
52 "ValveBiped.Bip01_L_Thigh" 0
53 "ValveBiped.Bip01_L_Calf" 52
54 "ValveBiped.Bip01_L_Foot" 53
55 "ValveBiped.Bip01_L_Toe0" 54
end
skeleton
time 0
0  -0.002349 -0.531261 38.566917  1.570796 -0.000000 0.000000
1  0.000005 3.345127 -2.981903  1.570796 0.086316 1.570796
2  4.018333 0.000093 0.000001  0.000000 -0.000000 -0.029148
3  3.518566 -0.000251 -0.000000  0.000000 -0.000000 0.100210
4  8.942641 0.000483 -0.000002  0.000000 0.000000 0.194102
5  3.307276 0.000162 0.000000  3.141590 -0.000000 0.400477
6  3.593717 -0.000175 0.000000  -0.000000 -0.000001 0.406557
7  1.999940 -3.000036 0.000000  -1.570795 0.000003 -1.326472
8  2.033308 1.000868 -1.937612  1.250151 1.593893 -0.420831
9  6.028142 0.000006 -0.000018  1.649380 -0.007279 0.021919
10  11.692546 0.000164 -0.000002  0.000000 -0.000000 -0.000000
11  11.481697 0.000654 0.000012  -1.570797 0.000000 -0.000000
12  2.676152 -1.712333 0.000107  -1.570718 0.000000 -1.571251
13  3.859623 -0.132416 1.193272  -0.000000 -0.000000 0.000000
14  1.312559 -0.000002 0.000002  0.000000 0.000000 0.000000
15  0.729353 -0.000055 -0.000031  0.000000 0.000000 0.000000
16  3.942261 0.050495 0.431213  -0.000000 -0.000000 0.000000
17  1.539099 0.000051 0.000048  0.000000 0.000000 0.000000
18  1.196322 0.000078 0.000075  0.000000 0.000000 0.000000
19  3.883672 -0.050167 -0.430875  -0.000000 0.000000 0.000000
20  1.719580 0.000073 0.000074  0.000000 -0.000000 -0.000000
21  1.209181 0.000002 0.000015  0.000000 0.000000 0.000000
22  3.859891 -0.148773 -1.331114  -0.000000 0.000000 0.000000
23  1.719424 -0.000098 -0.000135  -0.000000 -0.000000 -0.000000
24  1.099665 -0.000059 -0.000080  0.000000 0.000000 0.000000
25  0.806087 -0.359798 -1.318303  1.204195 0.673573 -0.793901
26  1.789782 -0.000024 -0.000031  0.001690 -0.006050 -0.033331
27  1.206999 0.000079 0.000019  -0.000017 -0.009613 0.101099
28  2.033297 1.000865 1.937659  -1.321853 -1.593904 -0.420954
29  6.028139 0.000030 -0.000029  -1.577569 0.005693 0.022396
30  11.692557 0.000156 0.000005  0.000000 -0.000000 0.000000
31  11.481681 0.000674 -0.000035  1.570797 0.000000 -0.000000
32  2.676072 -1.712460 0.000020  1.570750 0.000054 1.573634
33  3.859711 -0.142437 -1.191950  0.000000 -0.000000 0.000000
34  1.312564 0.000004 0.000002  -0.000000 0.000000 0.000000
35  0.729369 0.000054 -0.000032  -0.000000 0.000000 0.000000
36  3.942338 0.046738 -0.431417  0.000000 -0.000000 0.000000
37  1.539092 -0.000019 0.000016  -0.000000 0.000000 0.000000
38  1.196326 -0.000049 0.000043  -0.000000 0.000000 0.000000
39  3.883687 -0.046802 0.431468  0.000000 -0.000000 -0.000000
40  1.719569 -0.000022 0.000022  -0.000000 0.000000 0.000000
41  1.209185 -0.000072 0.000071  -0.000000 0.000000 0.000000
42  3.859853 -0.137981 1.332492  0.000000 -0.000000 -0.000000
43  1.719435 0.000009 -0.000015  0.000000 -0.000000 0.000000
44  1.099669 0.000004 -0.000014  -0.000000 0.000000 0.000000
45  0.806035 -0.348919 1.321265  -1.206884 -0.679482 -0.789304
46  1.789784 -0.000024 -0.000003  -0.001870 0.007150 -0.033296
47  1.207000 -0.000009 0.000004  -0.000031 0.011268 0.101058
48  -3.890452 0.000000 0.000007  -1.570796 -0.000000 -1.570796
49  17.848171 -0.000879 0.000004  0.000000 -0.000000 0.000000
50  16.525253 0.000365 0.000003  0.038603 0.040773 -1.071612
51  6.879449 0.000012 -0.000027  -0.081329 -0.002944 -0.584372
52  3.890452 -0.000004 -0.000003  -1.570796 -0.000000 -1.570796
53  17.848177 -0.000889 0.000007  0.000000 -0.000000 0.000000
54  16.525240 -0.000426 0.000003  -0.027920 -0.040783 -1.071666
55  6.879448 0.000013 -0.000023  -0.007290 -0.002939 -0.584370
end
