version 1
nodes
0 "c_arms_citizen_hands" -1
1 "ValveBiped.Bip01_Spine4" -1
2 "ValveBiped.Bip01_L_Clavicle" 1
3 "ValveBiped.Bip01_L_UpperArm" 2
4 "ValveBiped.Bip01_L_Forearm" 3
5 "ValveBiped.Bip01_L_Hand" 4
6 "ValveBiped.Bip01_L_Finger4" 5
7 "ValveBiped.Bip01_L_Finger41" 6
8 "ValveBiped.Bip01_L_Finger42" 7
9 "ValveBiped.Bip01_L_Finger3" 5
10 "ValveBiped.Bip01_L_Finger31" 9
11 "ValveBiped.Bip01_L_Finger32" 10
12 "ValveBiped.Bip01_L_Finger2" 5
13 "ValveBiped.Bip01_L_Finger21" 12
14 "ValveBiped.Bip01_L_Finger22" 13
15 "ValveBiped.Bip01_L_Finger1" 5
16 "ValveBiped.Bip01_L_Finger11" 15
17 "ValveBiped.Bip01_L_Finger12" 16
18 "ValveBiped.Bip01_L_Finger0" 5
19 "ValveBiped.Bip01_L_Finger01" 18
20 "ValveBiped.Bip01_L_Finger02" 19
21 "ValveBiped.Bip01_L_Ulna" 4
22 "ValveBiped.Bip01_L_Wrist" 4
23 "ValveBiped.Bip01_R_Clavicle" 1
24 "ValveBiped.Bip01_R_UpperArm" 23
25 "ValveBiped.Bip01_R_Forearm" 24
26 "ValveBiped.Bip01_R_Hand" 25
27 "ValveBiped.Bip01_R_Finger4" 26
28 "ValveBiped.Bip01_R_Finger41" 27
29 "ValveBiped.Bip01_R_Finger42" 28
30 "ValveBiped.Bip01_R_Finger3" 26
31 "ValveBiped.Bip01_R_Finger31" 30
32 "ValveBiped.Bip01_R_Finger32" 31
33 "ValveBiped.Bip01_R_Finger2" 26
34 "ValveBiped.Bip01_R_Finger21" 33
35 "ValveBiped.Bip01_R_Finger22" 34
36 "ValveBiped.Bip01_R_Finger1" 26
37 "ValveBiped.Bip01_R_Finger11" 36
38 "ValveBiped.Bip01_R_Finger12" 37
39 "ValveBiped.Bip01_R_Finger0" 26
40 "ValveBiped.Bip01_R_Finger01" 39
41 "ValveBiped.Bip01_R_Finger02" 40
42 "ValveBiped.Bip01_R_Ulna" 25
43 "ValveBiped.Bip01_R_Wrist" 25
44 "+ArmScalfR" 24
end
skeleton
time 0
0  0.000000 0.000000 0.000000  0.000000 -0.000000 0.000000
1  0.000012 -3.325841 18.392042  -1.570798 -1.391890 -1.570796
2  2.033356 1.000747 1.937653  -1.544982 -1.855077 -0.198610
3  6.028125 -0.000004 0.000046  -1.575874 0.007238 0.283829
4  11.692519 0.000029 -0.000069  0.000001 -0.000363 -0.000000
5  11.481631 -0.000078 -0.000020  1.570797 0.000000 -0.000001
6  3.859665 -0.392338 -1.442049  0.000000 -0.000000 -0.000000
7  1.312561 -0.000032 0.000022  -0.000000 -0.000000 0.000000
8  0.729364 0.000006 -0.000010  0.000000 0.000000 -0.000000
9  3.942300 -0.203163 -0.531520  0.000000 -0.000000 -0.000000
10  1.539087 -0.000026 0.000021  -0.000000 -0.000000 0.000000
11  1.196315 0.000035 -0.000041  0.000000 0.000000 -0.000000
12  3.883684 -0.296699 0.331367  0.000000 -0.000000 -0.000000
13  1.719569 -0.000041 0.000033  -0.000000 -0.000000 0.000000
14  1.209179 -0.000030 0.000019  0.000000 0.000000 -0.000000
15  3.859863 -0.387878 1.232391  0.000000 0.000000 0.000000
16  1.719428 -0.000092 0.000089  -0.000000 -0.000000 0.000000
17  1.099664 -0.000033 0.000034  -0.000000 0.000000 -0.000000
18  0.806075 -0.348907 1.321242  -1.291126 -0.587421 -1.020296
19  1.789780 -0.000038 -0.000019  0.050573 0.008616 -0.238820
20  1.206999 -0.000001 -0.000021  -0.057058 -0.039327 0.075513
21  5.740827 -0.000039 0.000007  0.000000 0.000000 0.000000
22  11.481658 -0.000078 0.000012  0.001226 -0.000001 0.000002
23  2.033362 1.000756 -1.937602  1.473131 1.855074 -0.198635
24  6.028123 -0.000005 -0.000025  1.644835 -0.027352 0.283002
25  11.692504 -0.000020 0.000075  0.000000 -0.000007 -0.000001
26  11.481655 -0.000133 -0.000003  -1.570797 0.000000 0.000001
27  3.859655 -0.382551 1.443112  0.000000 -0.000000 0.000000
28  1.312553 0.000042 0.000032  0.000000 0.000000 -0.000000
29  0.729365 0.000034 0.000013  -0.000000 -0.000000 -0.000000
30  3.942269 -0.199663 0.531046  0.000000 -0.000000 0.000000
31  1.539099 -0.000010 -0.000013  0.000000 0.000000 -0.000000
32  1.196317 0.000041 0.000034  0.000000 -0.000000 -0.000000
33  3.883643 -0.300317 -0.331040  0.000000 -0.000000 0.000000
34  1.719574 -0.000050 -0.000068  -0.000000 0.000000 -0.000000
35  1.209179 -0.000021 -0.000026  -0.000000 -0.000000 -0.000000
36  3.859808 -0.398927 -1.231281  0.000000 0.000000 0.000000
37  1.719427 -0.000008 -0.000018  0.000000 -0.000000 -0.000000
38  1.099653 0.000028 0.000034  0.000000 0.000000 -0.000000
39  0.806015 -0.359834 -1.318333  1.211126 0.682668 -1.078419
40  1.789783 -0.000024 0.000031  -0.007355 -0.005043 -0.127872
41  1.207007 0.000019 0.000002  0.049020 0.030757 0.062579
42  5.740831 -0.000066 0.000001  0.000000 0.000001 0.000000
43  11.481655 -0.000133 -0.000003  0.000163 0.000000 0.000001
44  2.723096 1.154140 -3.840010  -2.499937 -0.603818 0.810746
end
